<svg xmlns="http://www.w3.org/2000/svg" xmlns:xlink="http://www.w3.org/1999/xlink" viewBox="0 0 344.62 503.35"><defs><style>.cls-1{fill:none;}.cls-2{fill:#fff;}.cls-3{clip-path:url(#clip-path);}.cls-4{clip-path:url(#clip-path-2);}.cls-5{clip-path:url(#clip-path-3);}</style><clipPath id="clip-path" transform="translate(-528.88 -147.13)"><rect class="cls-1" x="472.31" y="3.24" width="1027.11" height="840.04"/></clipPath><clipPath id="clip-path-2" transform="translate(-528.88 -147.13)"><rect class="cls-1" x="-133.43" y="-75.29" width="1632.86" height="918.57"/></clipPath><clipPath id="clip-path-3" transform="translate(-528.88 -147.13)"><rect class="cls-1" x="531.95" y="155.14" width="248.7" height="296.12"/></clipPath></defs><g id="Capa_2" data-name="Capa 2"><path class="cls-2" d="M655.72,177.38c7.81-.52,15.27,1.71,22.87,3.32s10.67-9.9,3.16-11.48c-8.6-1.82-17.17-4.34-26-3.74-7.6.51-7.66,12.42,0,11.9Z" transform="translate(-528.88 -147.13)"/><path class="cls-2" d="M690.36,169.39l-21.89,1.35c-7.61.47-7.66,12.38,0,11.91l21.89-1.36c7.62-.47,7.67-12.38,0-11.9Z" transform="translate(-528.88 -147.13)"/><path class="cls-2" d="M680.63,169.33a158.74,158.74,0,0,1-19.2-5.65c-7.21-2.62-10.32,8.88-3.16,11.48a157.68,157.68,0,0,0,19.2,5.65c7.46,1.7,10.64-9.78,3.16-11.48Z" transform="translate(-528.88 -147.13)"/><path class="cls-2" d="M662.31,177.28l17.83,4c7.46,1.66,10.65-9.82,3.16-11.48l-17.83-4c-7.46-1.66-10.65,9.81-3.16,11.48Z" transform="translate(-528.88 -147.13)"/><path class="cls-2" d="M740.33,430.9l25.58-6.38c6.79-1.7,4.89-11.25-1.58-11.69-8.25-.57-14.7,5-18.33,12-4.21,8.09-7.11,17.17-9.77,25.87a234.42,234.42,0,0,0-9.75,55.61c-.43,7.66,11.47,7.63,11.9,0a221.32,221.32,0,0,1,14.17-66.56c2-5.3,4.57-15.49,11.78-15L762.75,413l-25.59,6.38c-7.43,1.86-4.28,13.34,3.17,11.48Z" transform="translate(-528.88 -147.13)"/><path class="cls-2" d="M711.49,533.27l22-82.26c2-7.41-9.5-10.57-11.48-3.16l-22,82.26c-2,7.41,9.5,10.57,11.48,3.16Z" transform="translate(-528.88 -147.13)"/><path class="cls-2" d="M739.84,417.9q-9.18,49.91-19.57,99.59c-1.56,7.48,9.91,10.68,11.48,3.17q10.38-49.68,19.58-99.6c1.37-7.49-10.1-10.7-11.49-3.16Z" transform="translate(-528.88 -147.13)"/><path class="cls-2" d="M729.15,515.05A402.58,402.58,0,0,0,731,388.71c-1.08-7.56-12.55-4.34-11.48,3.16a384.32,384.32,0,0,1-1.82,120c-1.3,7.5,10.17,10.72,11.48,3.17Z" transform="translate(-528.88 -147.13)"/><path class="cls-2" d="M737.67,505.78a43,43,0,0,0,29.47-12.2c7.23-7.23,12.67-19.09,12.2-29.47-1-22.57-18.31-41.67-41.67-41.67a43,43,0,0,0-29.47,12.21c-7.22,7.22-12.67,19.08-12.2,29.46,1,22.58,18.31,41.67,41.67,41.67Z" transform="translate(-528.88 -147.13)"/><path class="cls-2" d="M728.51,527.66A43,43,0,0,0,758,515.46c7.23-7.23,12.67-19.09,12.2-29.47-1-22.57-18.31-41.67-41.67-41.67a43,43,0,0,0-29.46,12.21c-7.23,7.22-12.67,19.08-12.21,29.46,1,22.58,18.31,41.67,41.67,41.67Z" transform="translate(-528.88 -147.13)"/><path class="cls-2" d="M700.53,530.72A43,43,0,0,0,730,518.51c7.23-7.23,12.67-19.08,12.21-29.46-1-22.58-18.31-41.68-41.67-41.68a43,43,0,0,0-29.47,12.21c-7.23,7.23-12.67,19.09-12.21,29.47,1,22.57,18.31,41.67,41.68,41.67Z" transform="translate(-528.88 -147.13)"/><path class="cls-2" d="M671,512.91a43,43,0,0,0,29.47-12.21c7.23-7.22,12.67-19.08,12.21-29.46-1-22.58-18.31-41.68-41.68-41.68a43,43,0,0,0-29.46,12.21c-7.23,7.23-12.67,19.09-12.21,29.47,1,22.57,18.31,41.67,41.67,41.67Z" transform="translate(-528.88 -147.13)"/><path class="cls-2" d="M656.77,540.39a43,43,0,0,0,29.46-12.21c7.23-7.23,12.67-19.09,12.21-29.47-1-22.57-18.31-41.67-41.67-41.67a43,43,0,0,0-29.47,12.21c-7.23,7.22-12.67,19.08-12.21,29.46,1,22.58,18.31,41.68,41.68,41.68Z" transform="translate(-528.88 -147.13)"/><path class="cls-2" d="M646.59,535.3a43,43,0,0,0,29.47-12.21c7.22-7.23,12.67-19.08,12.2-29.46C687.25,471.05,670,452,646.59,452a43,43,0,0,0-29.47,12.21c-7.22,7.23-12.67,19.08-12.2,29.47,1,22.57,18.31,41.67,41.67,41.67Z" transform="translate(-528.88 -147.13)"/><path class="cls-2" d="M708.16,551.58a43,43,0,0,0,29.47-12.21c7.22-7.22,12.67-19.08,12.2-29.46-1-22.58-18.31-41.67-41.67-41.67a43,43,0,0,0-29.47,12.2c-7.23,7.23-12.67,19.09-12.2,29.47,1,22.58,18.31,41.67,41.67,41.67Z" transform="translate(-528.88 -147.13)"/><path class="cls-2" d="M708.16,564.81a43,43,0,0,0,29.47-12.21c7.22-7.22,12.67-19.08,12.2-29.46-1-22.58-18.31-41.67-41.67-41.67a43,43,0,0,0-29.47,12.2c-7.23,7.23-12.67,19.09-12.2,29.47,1,22.58,18.31,41.67,41.67,41.67Z" transform="translate(-528.88 -147.13)"/><path class="cls-2" d="M705.61,574.48a43,43,0,0,0,29.47-12.21c7.23-7.23,12.67-19.08,12.21-29.46-1-22.58-18.31-41.68-41.68-41.68a43,43,0,0,0-29.46,12.21c-7.23,7.23-12.67,19.09-12.21,29.47,1,22.57,18.31,41.67,41.67,41.67Z" transform="translate(-528.88 -147.13)"/><path class="cls-2" d="M699.51,579.06A43,43,0,0,0,729,566.85c7.22-7.23,12.67-19.08,12.2-29.46-1-22.58-18.31-41.68-41.67-41.68A43,43,0,0,0,670,507.92c-7.23,7.23-12.67,19.08-12.2,29.47,1,22.57,18.31,41.67,41.67,41.67Z" transform="translate(-528.88 -147.13)"/><path class="cls-2" d="M714.26,579.76l5.1.11a40.23,40.23,0,0,0,38.08-25.61A31.36,31.36,0,0,0,761,538.2l-1.49-11.08a41.62,41.62,0,0,0-10.72-18.38l-8.43-6.52a41.44,41.44,0,0,0-21-5.69l-5.1-.11A40.2,40.2,0,0,0,676.18,522a31.36,31.36,0,0,0-3.59,16.06l1.49,11.08a41.64,41.64,0,0,0,10.71,18.38l8.44,6.52a41.44,41.44,0,0,0,21,5.69Z" transform="translate(-528.88 -147.13)"/><path class="cls-2" d="M735.13,585.16A43,43,0,0,0,764.59,573c7.23-7.23,12.67-19.09,12.21-29.47-1-22.58-18.31-41.67-41.67-41.67A43,43,0,0,0,705.66,514c-7.23,7.23-12.67,19.09-12.2,29.47,1,22.58,18.31,41.67,41.67,41.67Z" transform="translate(-528.88 -147.13)"/><path class="cls-2" d="M778.75,531.17c2-13,7.4-25.12,10.24-37.94,2-8.94,3.65-18.5,3-27.7A124,124,0,0,0,786,435c-3.34-10.26-9.67-19.36-19.15-24.9-8.93-5.23-22.09-7.44-32.11-4.2s-19.81,9.51-24.9,19.15-7.69,21.4-4.2,32.11a107.81,107.81,0,0,1,4.22,16L708.32,462a56.7,56.7,0,0,1,0,13.53l1.49-11.08c-2.17,15.26-9,29.33-11.42,44.54-1.8,11.45-1.87,21.73,4.2,32.11,5.06,8.65,15,16.89,24.91,19.15,10.67,2.43,22.64,1.91,32.11-4.2,8.53-5.5,17.5-14.42,19.15-24.9Z" transform="translate(-528.88 -147.13)"/><path class="cls-2" d="M776.23,463.09c-1.85-15.74-5.55-32.43-4-48.3l-1.49,11.08c.15-1.2.34-2.4.59-3.58,2.07-11.21,1.72-22-4.2-32.11-5.06-8.64-15-16.89-24.91-19.15-10.67-2.43-22.64-1.91-32.11,4.2-8.68,5.59-17.2,14.36-19.15,24.9a114.38,114.38,0,0,0-1.35,35.52q1.59,13.73,3.23,27.44c1.34,11.43,3.76,21,12.2,29.47,7.23,7.23,19.09,12.67,29.47,12.21,10.78-.49,22-4,29.47-12.21,7-7.59,13.46-18.74,12.2-29.47Z" transform="translate(-528.88 -147.13)"/><path class="cls-2" d="M728.48,384.57c-9-.05-17.31,2.59-26,4.21l11.08-1.49a25.3,25.3,0,0,1-6.62,0L718,388.75c-7-1.27-13.95-2.57-21-3.14-4.07-.33-8.14-.28-12.19-.77l11.08,1.49a29.83,29.83,0,0,1-6.57-1.84c-9.32-3.81-23.84-.64-32.12,4.2-8.64,5.06-16.88,15-19.15,24.91-2.43,10.66-1.9,22.64,4.2,32.11l6.52,8.43a41.59,41.59,0,0,0,18.39,10.72c10.49,4.29,22.28,3,33.29,4.48l-11.07-1.49c7.65,1.39,15.55,3.55,23.35,2.89,8.15-.69,15.54-2.91,23.48-4.18l-11.08,1.49a18.75,18.75,0,0,1,3.35-.14,42.91,42.91,0,0,0,29.46-12.2c7.23-7.23,12.67-19.09,12.21-29.47-1-22.68-18.31-41.54-41.67-41.67Z" transform="translate(-528.88 -147.13)"/><path class="cls-2" d="M592.65,417.76a43,43,0,0,0,29.47-12.21c7.23-7.23,12.67-19.08,12.21-29.47-1-22.57-18.31-41.67-41.68-41.67a43,43,0,0,0-29.46,12.21C556,353.85,550.52,365.7,551,376.08c1,22.58,18.31,41.68,41.67,41.68Z" transform="translate(-528.88 -147.13)"/><path class="cls-2" d="M607.92,363.82a43,43,0,0,0,29.47-12.21c7.22-7.22,12.67-19.08,12.2-29.46-1-22.58-18.31-41.67-41.67-41.67a43,43,0,0,0-29.47,12.2c-7.23,7.23-12.67,19.09-12.2,29.47,1,22.58,18.31,41.67,41.67,41.67Z" transform="translate(-528.88 -147.13)"/><path class="cls-2" d="M634.89,343.47a43,43,0,0,0,29.46-12.21c7.23-7.23,12.67-19.08,12.21-29.46-1-22.58-18.31-41.68-41.67-41.68a43,43,0,0,0-29.47,12.21c-7.23,7.23-12.67,19.08-12.2,29.47,1,22.57,18.3,41.67,41.67,41.67Z" transform="translate(-528.88 -147.13)"/><path class="cls-2" d="M679.66,319a43,43,0,0,0,29.47-12.2c7.23-7.23,12.67-19.09,12.21-29.47-1-22.58-18.31-41.67-41.68-41.67a43,43,0,0,0-29.46,12.2C643,255.13,637.53,267,638,277.37,639,300,656.3,319,679.66,319Z" transform="translate(-528.88 -147.13)"/><path class="cls-2" d="M708.16,274.77a43,43,0,0,0,29.47-12.2c7.22-7.23,12.67-19.09,12.2-29.47-1-22.58-18.31-41.67-41.67-41.67a43,43,0,0,0-29.47,12.21c-7.23,7.22-12.67,19.08-12.2,29.46,1,22.58,18.31,41.67,41.67,41.67Z" transform="translate(-528.88 -147.13)"/><path class="cls-2" d="M723.42,292.58a43,43,0,0,0,29.47-12.2c7.23-7.23,12.67-19.09,12.21-29.47-1-22.58-18.31-41.67-41.68-41.67A43,43,0,0,0,694,221.45c-7.23,7.22-12.67,19.08-12.21,29.46,1,22.58,18.31,41.67,41.67,41.67Z" transform="translate(-528.88 -147.13)"/><path class="cls-2" d="M731.06,294.62a43,43,0,0,0,29.46-12.21c7.23-7.22,12.67-19.08,12.21-29.46-1-22.58-18.31-41.67-41.67-41.67a43,43,0,0,0-29.47,12.2c-7.23,7.23-12.67,19.09-12.21,29.47,1,22.57,18.31,41.67,41.68,41.67Z" transform="translate(-528.88 -147.13)"/><path class="cls-2" d="M737.67,297.67a43,43,0,0,0,29.47-12.2c7.23-7.23,12.67-19.09,12.2-29.47-1-22.58-18.31-41.67-41.67-41.67a43,43,0,0,0-29.47,12.2C701,233.76,695.53,245.62,696,256c1,22.58,18.31,41.67,41.67,41.67Z" transform="translate(-528.88 -147.13)"/><path class="cls-2" d="M753.45,263.32a6.87,6.87,0,0,1,1.28,0l-6.33-.85a7.42,7.42,0,0,1,1.22.36l-5.69-2.4a7.63,7.63,0,0,1,1.1.66l-4.82-3.72a7.65,7.65,0,0,1,.89.91l-3.73-4.82a4.52,4.52,0,0,1,.46.76l-2.4-5.69a6.77,6.77,0,0,1,.39,1.33l-.85-6.33a7.07,7.07,0,0,1,0,1.38l.85-6.33a7.66,7.66,0,0,1-.35,1.33l2.4-5.69a4,4,0,0,1-.45.81,17.72,17.72,0,0,0-2.82,8.86,21.37,21.37,0,0,0,4.68,17.59,18,18,0,0,0,6.69,6.13c5.52,2.92,12.22,4.39,18.34,2.4a25.38,25.38,0,0,0,14.24-10.94c.16-.27.3-.53.44-.81a36.82,36.82,0,0,0,2.56-6.12c.09-.3.14-.6.2-.9a39.09,39.09,0,0,0,.88-6.79c0-.31,0-.61,0-.92a39.63,39.63,0,0,0-.94-6.79c-.09-.3-.2-.58-.31-.87a38.41,38.41,0,0,0-2.74-6.27,45.94,45.94,0,0,0-4-5.16,6.9,6.9,0,0,0-.6-.61,48.5,48.5,0,0,0-5.15-4,7.74,7.74,0,0,0-.73-.43,47.79,47.79,0,0,0-6.08-2.58c-.27-.09-.54-.17-.82-.24a50.94,50.94,0,0,0-6.75-.92,7.5,7.5,0,0,0-1.06,0,23,23,0,0,0-21.76,14.64,17.86,17.86,0,0,0-2.05,9.17c.27,6.16,2.3,12.55,7,16.84,4.47,4.1,10.57,7.41,16.84,7Z" transform="translate(-528.88 -147.13)"/><path class="cls-2" d="M728,260.61q-3.81,17.1-6.94,34.32c-2.17,11.94,3.13,26.58,16.63,29.29,13.68,2.74,26.5-2.73,32.07-15.94,3-7.16,3.24-15.47,2.61-23.15l-46.77,6.33a34.54,34.54,0,0,0,3.47,8.7c4.35,8.4,14.81,12.57,23.72,11.37,8.39-1.12,18.46-7.9,19.8-17l2.68-18.34H729.3c.14.55.36,3.05.75,3.35-1-.81-.48-5.13-.22-.34.14,2.59.13,5.18.12,7.77,0,10.06,7.38,20.67,17.48,23a24.68,24.68,0,0,0,26.89-10.95c4.84-7.72,5.33-16.1,3.61-24.85-2.28-11.61-15.23-18.53-26.13-17.06-12.4,1.66-19.49,11.42-20.65,23.39-1.48,15.36,7.36,30.78,23.44,32.94a36.39,36.39,0,0,0,31.26-11.92c7.8-9.07,9.46-21.43,1.86-31.26A23.91,23.91,0,0,0,757,264c-2.23,1.19-1.61,1,1.86-.63-11.64,4.35-20.84,16.3-16.63,29.29,3.68,11.39,16.8,21.3,29.29,16.63a69.45,69.45,0,0,0,9.52-4.16l-28.85-37.4c-2.9,3.36,4.48-2,.46,0l3-1.3q-6.3,1.38,7.21.31l14.24,10.94a12.17,12.17,0,0,1,1.5,6,16.33,16.33,0,0,1,.15-3.28L732,286.75a17.65,17.65,0,0,1,1.2-11.84l44.37,12a95.21,95.21,0,0,0-2.34-23.44c-2.43-9.74-12.78-17.94-23-17.48a28.19,28.19,0,0,0-12,3.25c-4.55,2.4-10.18,9-11,14.23l-2.67,18.34,43.52-5.69,1.33,2.67c-2.36-11.6-15.16-18.53-26.12-17.06s-21.61,11.55-20.65,23.39c.18,2.23.29,4.44.25,6.68,0,.95-.06,1.91-.13,2.86a16,16,0,0,1,4.73-10.41l10.51-6.13-1.21.41h12.66l-1.21-.25,16.63,29.3q3.13-17.23,6.94-34.32c2.7-12.13-3.67-26.33-16.63-29.29-12.07-2.75-26.4,3.63-29.29,16.63Z" transform="translate(-528.88 -147.13)"/><path class="cls-2" d="M758.82,315.78c1.81.41,3.58.91,5.37,1.41,3.08.85-1-.4-1.86-.85,2.78,1.51-.87-.92-1.52-1.52,2.54,2.35-1.39-1.25-1.27-1.74-.09.36.91,1.87,1.11,2.21a29.22,29.22,0,0,0,11,10.64,36.5,36.5,0,0,0,14.77,3.89c.9.07,1.85.17,2.76.15,1.26.07.8,0-1.38-.19a8.74,8.74,0,0,1-7.43-4.19c-6.7-4.87-6.36-5.46-4.61-2.28a29.45,29.45,0,0,0,4.57,5.85c3.84,3.82,8.35,6,13.39,7.74,11.78,4.12,26.57-4.67,29.3-16.63,3-13.29-4-24.88-16.63-29.29l10.13,7.73-.48-1.12c-.78-2.11-2.79-4.3-4.27-5.92a29.31,29.31,0,0,0-12.2-7.6,38.58,38.58,0,0,0-9.79-1.7,13.77,13.77,0,0,0-2.64-.11l14.67,9c-.29-.55-.56-1.1-.83-1.65-2.24-5.57-8.9-11.23-14-14.06a59.18,59.18,0,0,0-15.47-5.69c-12.12-2.77-26.35,3.72-29.29,16.63-2.77,12.13,3.64,26.32,16.63,29.3Z" transform="translate(-528.88 -147.13)"/><path class="cls-2" d="M800.51,337.31c12.46,0,24.39-10.95,23.81-23.81s-10.46-23.81-23.81-23.81c-12.45,0-24.39,10.95-23.81,23.81s10.46,23.81,23.81,23.81Z" transform="translate(-528.88 -147.13)"/><path class="cls-2" d="M789.32,323.32c12.45,0,24.39-10.95,23.81-23.81s-10.46-23.82-23.81-23.82c-12.46,0-24.39,11-23.81,23.82s10.46,23.81,23.81,23.81Z" transform="translate(-528.88 -147.13)"/><path class="cls-2" d="M785,321.28c12.46,0,24.39-10.95,23.82-23.81S798.34,273.66,785,273.66c-12.45,0-24.39,10.95-23.81,23.81s10.46,23.81,23.81,23.81Z" transform="translate(-528.88 -147.13)"/><path class="cls-2" d="M800.77,326.88c12.45,0,24.39-10.95,23.81-23.81s-10.46-23.82-23.81-23.82c-12.46,0-24.39,11-23.82,23.82s10.47,23.81,23.82,23.81Z" transform="translate(-528.88 -147.13)"/><path class="cls-2" d="M803.82,327.9c12.46,0,24.39-11,23.81-23.82s-10.46-23.81-23.81-23.81c-12.46,0-24.39,11-23.81,23.81s10.46,23.82,23.81,23.82Z" transform="translate(-528.88 -147.13)"/><path class="cls-2" d="M805.63,304.05a45.68,45.68,0,0,0,8.84,1.52,41.32,41.32,0,0,1,4.14.48l1.58.37q3.07,1.45-.46-3l2.74-3.56-.83.48c-2.57,1.49-4,5.55-2.13,8.15,2.33,3.18,5.76,4.78,9.62,3,2-.91,2.53-2.74,4.15-3.91s4.36-.7,6.34-1.43c4.28-1.59,6.49-8.52,1.42-10.88l-21.95-10.2c-6.9-3.21-13,7.05-6,10.28L835,305.57l1.42-10.88c-2.67,1-5.44.4-8.1,1.8a14,14,0,0,0-3.11,2.13l-1,1.14q-2.73,2.69,2.46.64l3.55,2.74-.47-.65-2.14,8.14c5.46-3.15,5.28-10.48.05-13.83-5.59-3.59-12.77-2.39-18.9-4.23-7.36-2.2-10.5,9.29-3.17,11.48Z" transform="translate(-528.88 -147.13)"/><path class="cls-2" d="M715.58,293.68c-1.35,13.35,1.52,26.67.34,40.06s-4.13,27-6.55,40.33c-1.35,7.42,9.52,10.69,11.48,3.16,5.62-21.64,11-43.35,12.81-65.71H721.75c2,25.43,2,51.11-3.06,76.2-1.51,7.45,9.38,10.61,11.48,3.17,6.66-23.5,8.77-47.89,10.76-72.13l-11.69,1.58c2.75,9.63,2.43,21.21,2.28,31.19-.16,10.87-3.19,21.32-3.57,32.14-.25,6.89,9.72,7.83,11.69,1.58a327.45,327.45,0,0,0,14.29-76H742c.81,25.93-3,51.9.36,77.75.82,6.35,9.54,8.44,11.69,1.58,7.12-22.72,13.16-46.48,10-70.44l-4.37,5.74,2.43-.47-7.32-4.16c2.85,7,2.3,13.2,1.41,20.5a111.23,111.23,0,0,0-.7,19.39c.46,8.88.28,29.4,13.82,26.88,3.76-.7,5.45-5.68,3.56-8.74a34,34,0,0,1-3.09-6.14l-9.95,5.79a5.7,5.7,0,0,1,2.08,3.41c.43,3.21,2.43,5.91,6,5.95,2.89,0,6.38-2.77,6-5.95-.62-4.68-2.14-8.49-5.57-11.83-4-3.9-12.09,0-10,5.79a49.1,49.1,0,0,0,4.29,9l3.55-8.75,3.35.42-.37-1.81a19.22,19.22,0,0,0-.66-3.64c-.41-2.52-.69-5.06-.89-7.6a109.84,109.84,0,0,1-.09-15.71c.69-10.51,2.93-20-1.22-30.11-1.29-3.16-3.83-4.84-7.32-4.16l-2.43.47c-2.27.44-4.7,3.33-4.37,5.74,3.07,23-2.7,45.44-9.54,67.28L754.28,387c-3.35-25.85.46-51.82-.35-77.75-.25-7.72-11.39-7.6-11.91,0a313.34,313.34,0,0,1-13.86,72.87l11.69,1.59c.41-11.45,3.58-22.5,3.6-34,0-10.48.17-22.32-2.73-32.45-1.93-6.72-11.16-4.94-11.7,1.58-1.9,23.22-3.95,46.46-10.33,69l11.48,3.17c5.32-26.17,5.55-52.84,3.49-79.37a6,6,0,0,0-11.91,0c-1.68,21.27-7,42-12.38,62.55l11.48,3.16c2.51-13.78,5.35-27.62,6.79-41.56s-1.57-28-.15-42c.77-7.62-11.14-7.56-11.91,0Z" transform="translate(-528.88 -147.13)"/><path class="cls-2" d="M717.6,297.73c-4.09,1.08-8.18,2.2-12.28,3.25-3.67.94-7.39,1.16-11.06,2-6.77,1.5-11.46,6.59-17.78,8.91-7.08,2.6-4.26,13.8,3.16,11.48l2.8-.87-4.58-10.88c-5.94,3.2-11,7.37-17,10.45-6.51,3.37-12,6-13,13.91-.5,4.13,4.19,6.41,7.54,5.74,4.17-.84,5.63-3.56,8.3-6.4,2.36-2.53,5.49-3.5,7.44-6.62,4.07-6.52-6.23-12.5-10.28-6-.75,1.2-3.89,2.22-5,3.41s-2,3.83-3.61,4.14l7.54,5.74c.15-1.22,10.06-5.12,11.72-6.12,4.25-2.57,7.9-5.57,12.34-8,5.89-3.19,1.89-12.91-4.59-10.88l-2.8.87,3.16,11.48c6.21-2.28,11.33-7.52,17.78-8.91,7.84-1.68,15.56-3.17,23.34-5.23,7.4-2,4.26-13.46-3.16-11.48Z" transform="translate(-528.88 -147.13)"/><path class="cls-2" d="M679.91,323.78c3.72-1.59,6.9-4.07,10.78-5.34A32.34,32.34,0,0,1,703.05,317c7.65.46,7.63-11.45,0-11.91A42.32,42.32,0,0,0,687.52,307c-4.89,1.6-8.94,4.55-13.61,6.55-7,3-1,13.27,6,10.28Z" transform="translate(-528.88 -147.13)"/><path class="cls-2" d="M719.64,301.83a107.26,107.26,0,0,1-22.44.66c-6.58-.5-13-1.06-19.38,1.05-7.24,2.39-4.14,13.89,3.16,11.48,5.93-1.95,12-.87,18.06-.49a106.72,106.72,0,0,0,20.6-.79c3.21-.43,5.91-2.44,6-6,0-2.89-2.77-6.37-6-5.95Z" transform="translate(-528.88 -147.13)"/><path class="cls-2" d="M698.87,297.34c-12.41,5.92-26.13,8.49-38.35,14.88-10.69,5.59-22.39,14.31-27.43,25.61-2.17,4.86,2.7,11.89,8.14,8.15l15.24-10.47-8.74-6.72c-1.25,3.62-2.46,7.32-4.62,10.53s-5,5.87-7.15,9.07a48.76,48.76,0,0,0-7.66,22.09h11.9a62.88,62.88,0,0,1,4-18.42l-11.69-1.59a64.72,64.72,0,0,1-1.25,13.32L643,365.37l.07-9.92c.05-7.88-11-7.37-11.91,0q8-3.74,6.32.44l-3.56,2.73q-4.75-3.37-3-.28l.63,1.59c.63,1.59,1.23,3.19,1.77,4.81.59,1.78,2.89,6.77,2.21,8.4-.39.92-2.76,2-3.48,2.71a17.79,17.79,0,0,0-2.73,3.51,19.89,19.89,0,0,0-2.47,8.56c-.75,7.62,11.16,7.57,11.9,0,.41-4.18,5-5.28,7-8.53,2.08-3.43,1.59-7.5.86-11.24a72.47,72.47,0,0,0-4.18-13c-1.37-3.44-2.78-6.93-6.6-8.23a7.85,7.85,0,0,0-9.27,3.82c-1.86,3.55-.85,7.85,1.42,11s5.68,4.46,9.29,3.09c4.17-1.59,5.29-5.29,5.8-9.37H631.13l-.06,9.92c-.05,6.55,10.33,8.3,11.69,1.58a81.49,81.49,0,0,0,1.68-16.48c0-7-9.42-7.66-11.7-1.58a73.81,73.81,0,0,0-4.44,21.59c-.47,7.78,11.05,7.44,11.9,0a36.65,36.65,0,0,1,9-19.81c4.85-5.63,7.62-11.73,10-18.71,1.64-4.78-4.52-9.63-8.75-6.73L635.22,335.7l8.15,8.14c4.72-10.59,16-18.11,26.23-22.85,11.42-5.31,23.88-7.93,35.28-13.37,6.91-3.3.87-13.57-6-10.28Z" transform="translate(-528.88 -147.13)"/><path class="cls-2" d="M612.16,405.91c2.32,6.86,8.79,8.6,14.9,11.15,6.62,2.76,13.05,5.25,20.26,3.1,6.66-2,5-11.16-1.59-11.69l-13.8-1.11c-3.91-.32-8.08-1.15-11.95-.5-2.07.35-3.53,2.32-4.16,4.16.62-1.8-.74,0-1.8.68l-3.91,2.36,7.22,9.35a79.49,79.49,0,0,1,18.54-11.62c7-3.18.92-13.45-6-10.28a90.28,90.28,0,0,0-21,13.48c-5.2,4.41,1.51,12.8,7.21,9.35,4.65-2.81,9.34-4.74,11.18-10.16l-4.15,4.16c1.05-.18,3.78.52,4.83.61l5.92.47,11.83,1-1.58-11.7c-3.84,1.15-7.35-.39-10.9-1.84-1.47-.6-9.13-2.69-9.61-4.09-2.44-7.22-13.95-4.12-11.48,3.16Z" transform="translate(-528.88 -147.13)"/><path class="cls-2" d="M630.87,397.86a19.05,19.05,0,0,1-10.51-1.41v11.48A144.14,144.14,0,0,1,639,403.5c6.8-1.18,11.41,1.72,16.76,5.55l3-11.09c-13.58.72-27.78-4.12-40.77-7.65v11.48c7-2,15.31-1.14,22.53-1.2,7.74-.06,15.48.09,23.22.6l-3-11.1c-9.36,6-23.65,5.93-34.38,5.77l5.14,9c2.88-4.63,10-6.83,14.9-8.52a80.47,80.47,0,0,1,19.44-4.22c7.52-.68,7.73-12.34,0-11.91-4.47.25-8.95.53-13.43.38-.11,0-4.53.23-4.42.28-1.17-.52-2.74-4.14-3.44-5.24l-2.14,8.15c1.65-.95,7.17,1,8.89,1.34q4.83.84,9.66,1.63c5.53.9,11.06,1.89,16.62,2.57,12.19,1.49,25.49,3.13,37.67,1.24L712,379a300.74,300.74,0,0,0-30.53,7.06c-7.35,2.11-4.22,13.61,3.17,11.48a300.56,300.56,0,0,1,30.52-7.06c7.59-1.34,4.3-12.64-3.16-11.48-6.69,1-13.7,0-20.4-.49-6.45-.46-12.84-.94-19.23-2-6-1-12-1.93-18-3s-12.41-3.39-18-.14a6,6,0,0,0-2.14,8.14c2.87,4.52,5.2,9.1,10.82,10.24,6.7,1.35,14,.62,20.75.24V380.17a93,93,0,0,0-26,5.9c-7.11,2.81-14.47,6-18.65,12.74-2.43,3.91.74,8.89,5.14,9,12.82.19,29.23-.31,40.39-7.4a6,6,0,0,0-3-11.09c-8.38-.55-16.77-.67-25.16-.57-7.75.09-16.25-.6-23.76,1.6-5.58,1.64-5.74,9.92,0,11.48,14,3.81,29.28,8.85,43.94,8.07,6.15-.33,7.78-7.67,3-11.09-6.18-4.43-12.74-8.07-20.6-7.51s-16.34,2.8-23.94,5.19c-5.94,1.87-5.33,9.39,0,11.48A30.6,30.6,0,0,0,634,409.34c7.54-1.27,4.35-12.75-3.16-11.48Z" transform="translate(-528.88 -147.13)"/><path class="cls-2" d="M770.37,393.29c8-.59,15.49-2.62,23.31-4a82.32,82.32,0,0,1,25.31-.53c3.65.48,8.54.83,11.9,2.51-.72-1-.67-.89.16.35a12.83,12.83,0,0,0,1.9,2.2,23.46,23.46,0,0,0,3.61,2.38c3.35,2.11,5.12,5.47,7.36,8.73q3.75,5.44,7.35,11c3.45,5.38,13.36,2,10.88-4.59a39.15,39.15,0,0,0-13.34-17.89c-2.57-2-6.64-.37-8.15,2.14-1.82,3.05-.39,6.19,2.14,8.14a24.56,24.56,0,0,1,7.86,10.78l10.89-4.59c-2.73-4.24-5.55-8.42-8.42-12.56-2.4-3.46-4.63-7.5-8.12-10-1.43-1-3.06-1.59-4.33-2.78-1.06-1-1.63-2.2-2.87-3.09-3.45-2.49-8.7-3.07-12.78-3.79a95.55,95.55,0,0,0-27.43-.94c-9.18,1.05-18,4-27.23,4.64-7.6.56-7.66,12.47,0,11.91Z" transform="translate(-528.88 -147.13)"/><path class="cls-2" d="M843.53,404.29c1.35,1.58,1.76,3.47,2.75,5.22.87,1.53,2.21,2.66,3.11,4.16a44.19,44.19,0,0,0,2.86,5c1.83,2.34,2.07,3.12,2.72,6,1.43,6.42,12.5,5.16,11.69-1.58-.69-5.73-1.72-10.47-5.42-15-4.13-5.08-10.89.6-10,5.79,1.24,6.87,4.63,13.42,5.55,20.23,1,7.87.19,15.76-1.3,23.49-1.44,7.49,10,10.7,11.48,3.17a93.25,93.25,0,0,0,1.72-26.66c-.73-8-4.53-15.44-6-23.4l-9.95,5.8c1.41,1.73,1.67,4.45,1.93,6.6l11.7-1.59c-.59-2.62-.77-5-2.31-7.33-.72-1.07-1.88-1.78-2.61-2.81a38.76,38.76,0,0,1-1.86-3.7c-.86-1.55-2.28-2.83-3.13-4.23-1.6-2.65-2.51-5.12-4.59-7.56-5-5.84-13.36,2.61-8.42,8.42Z" transform="translate(-528.88 -147.13)"/><path class="cls-2" d="M851.55,459.29a37.72,37.72,0,0,0,.78,10.11c1.25,6.19,9.69,5.1,11.48,0a17.28,17.28,0,0,0,.79-4.16H852.7a65.41,65.41,0,0,1-5.49,20.63c-2.66,5.7-8.42,10-12.81,14.48-2.41,2.46-5,3.17-7.85,5-2.56,1.64-4.59,4-6.94,5.9a54.28,54.28,0,0,1-18,9.41c-5.57,1.74-5.75,9.82,0,11.48l1.07.31-1.42-10.88c-3.64,2-9.79,7.07-14.14,6.08-7.46-1.7-10.64,9.77-3.16,11.48,8.71,2,16-3.27,23.31-7.28,4.57-2.51,3.38-9.49-1.42-10.88l-1.08-.31v11.48a67.34,67.34,0,0,0,21.36-11c2.91-2.25,5.37-5,8.6-6.71a32.28,32.28,0,0,0,9.13-6.78c5.38-5.82,11.08-10,14.35-17.4a82,82,0,0,0,6.4-25c.8-7.62-11.1-7.55-11.9,0l-.37,1h11.48a26.12,26.12,0,0,1-.36-6.95c.51-7.65-11.4-7.62-11.9,0Z" transform="translate(-528.88 -147.13)"/><path class="cls-2" d="M788.73,530a98,98,0,0,1,6.3-15.94c3.44-6.83-6.83-12.86-10.28-6a116.29,116.29,0,0,0-7.5,18.79c-2.21,7.36,9.28,10.5,11.48,3.16Z" transform="translate(-528.88 -147.13)"/><path class="cls-2" d="M792,518.82c.62-17.08,6.91-33.54,5.37-50.76-.68-7.57-12.59-7.64-11.91,0,1.54,17.17-4.74,33.69-5.36,50.76-.28,7.66,11.63,7.65,11.9,0Z" transform="translate(-528.88 -147.13)"/><path class="cls-2" d="M784.63,463.74a156.53,156.53,0,0,1,7.07,49.1c-.12,7.66,11.79,7.66,11.91,0a167.39,167.39,0,0,0-7.5-52.27c-2.27-7.29-13.76-4.18-11.48,3.17Z" transform="translate(-528.88 -147.13)"/><path class="cls-2" d="M796.71,530.07c9.83-13.94,27.73-19.37,38.61-32.45,4.86-5.85-3.52-14.32-8.42-8.42-11.59,13.94-29.85,19.79-40.47,34.86-4.42,6.28,5.9,12.23,10.28,6Z" transform="translate(-528.88 -147.13)"/><path class="cls-2" d="M820.85,521.26q6.67-10.31,13.71-20.37c4.41-6.29-5.91-12.25-10.28-6q-7,10.06-13.72,20.37c-4.17,6.45,6.13,12.43,10.29,6Z" transform="translate(-528.88 -147.13)"/><path class="cls-2" d="M816.77,521.3c6.05-2.93,10.57-10.59,14.52-15.81a203.35,203.35,0,0,0,13.08-19.71c3.87-6.63-6.41-12.63-10.28-6-3.38,5.76-7,11.38-10.91,16.78q-2.76,3.81-5.75,7.44c-1.88,2.29-4,5.73-6.67,7-6.9,3.33-.87,13.6,6,10.28Z" transform="translate(-528.88 -147.13)"/><path class="cls-2" d="M841.91,497.65a163.62,163.62,0,0,0,9.9-23.55c2.41-7.3-9.09-10.42-11.48-3.17a142.44,142.44,0,0,1-8.71,20.71c-3.5,6.8,6.77,12.83,10.29,6Z" transform="translate(-528.88 -147.13)"/><path d="M787.41,541.54a1.49,1.49,0,0,0,0-3,1.49,1.49,0,0,0,0,3Z" transform="translate(-528.88 -147.13)"/><path d="M788.05,542.94a1.49,1.49,0,0,0,0-3,1.49,1.49,0,0,0,0,3Z" transform="translate(-528.88 -147.13)"/><path d="M788.68,543.71a1.49,1.49,0,0,0,0-3,1.49,1.49,0,0,0,0,3Z" transform="translate(-528.88 -147.13)"/><path class="cls-2" d="M807.76,514.74c15.57,0,30.49-13.69,29.77-29.76s-13.08-29.77-29.77-29.77c-15.57,0-30.48,13.69-29.76,29.77s13.08,29.76,29.76,29.76Z" transform="translate(-528.88 -147.13)"/><path class="cls-2" d="M819,495.15c15.57,0,30.48-13.69,29.76-29.76S835.64,435.62,819,435.62c-15.57,0-30.49,13.69-29.77,29.77s13.08,29.76,29.77,29.76Z" transform="translate(-528.88 -147.13)"/><path class="cls-2" d="M815.14,483.57c15.57,0,30.49-13.69,29.77-29.76S831.83,424,815.14,424c-15.57,0-30.48,13.69-29.76,29.77s13.07,29.76,29.76,29.76Z" transform="translate(-528.88 -147.13)"/><path class="cls-2" d="M833.46,480c15.57,0,30.48-13.69,29.76-29.76s-13.07-29.77-29.76-29.77c-15.57,0-30.49,13.69-29.77,29.77S816.77,480,833.46,480Z" transform="translate(-528.88 -147.13)"/><path class="cls-2" d="M827.86,460.68c15.57,0,30.49-13.69,29.77-29.77s-13.08-29.76-29.77-29.76c-15.57,0-30.48,13.69-29.76,29.76s13.08,29.77,29.76,29.77Z" transform="translate(-528.88 -147.13)"/><path class="cls-2" d="M817.18,447.45c15.57,0,30.48-13.69,29.76-29.77s-13.08-29.76-29.76-29.76c-15.57,0-30.49,13.69-29.77,29.76s13.08,29.77,29.77,29.77Z" transform="translate(-528.88 -147.13)"/><path class="cls-2" d="M795.42,449.1c15.57,0,30.49-13.69,29.77-29.76s-13.08-29.77-29.77-29.77c-15.57,0-30.48,13.69-29.76,29.77s13.08,29.76,29.76,29.76Z" transform="translate(-528.88 -147.13)"/><path class="cls-2" d="M790.34,446.43c15.57,0,30.48-13.69,29.76-29.77S807,386.9,790.34,386.9c-15.57,0-30.49,13.69-29.77,29.76s13.08,29.77,29.77,29.77Z" transform="translate(-528.88 -147.13)"/><path class="cls-2" d="M805.86,441.72c15.56,0,30.48-13.69,29.76-29.76s-13.08-29.77-29.76-29.77c-15.57,0-30.49,13.69-29.77,29.77s13.08,29.76,29.77,29.76Z" transform="translate(-528.88 -147.13)"/><path class="cls-2" d="M818.32,447.32c15.57,0,30.49-13.69,29.77-29.77S835,387.79,818.32,387.79c-15.57,0-30.48,13.69-29.76,29.76s13.07,29.77,29.76,29.77Z" transform="translate(-528.88 -147.13)"/><path class="cls-2" d="M756.63,442c15.57,0,30.48-13.69,29.76-29.77s-13.08-29.76-29.76-29.76c-15.57,0-30.49,13.69-29.77,29.76S739.94,442,756.63,442Z" transform="translate(-528.88 -147.13)"/><path class="cls-2" d="M775.58,440.83c15.57,0,30.49-13.69,29.77-29.76s-13.08-29.77-29.77-29.77c-15.57,0-30.49,13.69-29.77,29.77s13.08,29.76,29.77,29.76Z" transform="translate(-528.88 -147.13)"/><path class="cls-2" d="M810.94,453.68c15.57,0,30.49-13.69,29.77-29.76s-13.08-29.77-29.77-29.77c-15.57,0-30.48,13.69-29.76,29.77s13.08,29.76,29.76,29.76Z" transform="translate(-528.88 -147.13)"/><path class="cls-2" d="M786.33,448.87l.13.38A30.69,30.69,0,0,0,823.07,470l7.11-3a29.87,29.87,0,0,0,10.68-10.68l3-7.11a29.94,29.94,0,0,0,0-15.83l-.12-.38A28.65,28.65,0,0,0,819,411.72a22.52,22.52,0,0,0-11.87.53l-7.11,3a30,30,0,0,0-10.68,10.68l-3,7.11a30.15,30.15,0,0,0,0,15.83Z" transform="translate(-528.88 -147.13)"/><path d="M697.73,472.19c7.66,0,7.67-11.91,0-11.91s-7.68,11.91,0,11.91Z" transform="translate(-528.88 -147.13)"/><path d="M672.54,550.84c7.66,0,7.67-11.9,0-11.9s-7.67,11.9,0,11.9Z" transform="translate(-528.88 -147.13)"/><path d="M673.56,551.35c7.66,0,7.67-11.9,0-11.9s-7.68,11.9,0,11.9Z" transform="translate(-528.88 -147.13)"/><path class="cls-2" d="M768.45,582.11a235.65,235.65,0,0,1,8.38-29.59c2.57-7.23-8.93-10.35-11.48-3.17A235.8,235.8,0,0,0,757,579c-1.6,7.47,9.87,10.66,11.48,3.16Z" transform="translate(-528.88 -147.13)"/><path class="cls-2" d="M766.9,554.2,766.14,573c-.24,5.81-1.21,12,.22,17.74,1.76,7,10.92,4.64,11.69-1.58a99.19,99.19,0,0,0,.07-27.21c-.65-4.29-1.79-8.5-2.38-12.8-.38-2.83-1.52-9.89.14-12.4l-3.56,2.74,1.2-.24-4.59-.6c1.66.89,2.12,5.23,2.51,6.78.7,2.82,1.3,5.66,2,8.48a84,84,0,0,0,5.48,16.2c2.73,5.87,10.62,2.25,11.09-3a39.51,39.51,0,0,0-1.23-13.69l-11.48,3.17c2.28,7.88,6.85,14.8,9.43,22.58,2.43,7.36,4.41,14.8,8.54,21.44,3.32,5.32,10.51,2.69,11.1-3a48.32,48.32,0,0,0-.11-11l-11.1,3a63.93,63.93,0,0,1,4.89,15l4.16-7.32c-2.47.68-6.9-2.94-9-4.07l-9.21-5-18.42-10.05-1.43,10.88c1.45-.51,10.16-2.36,10.48-3.41l-3.4-1.4a30,30,0,0,1,1.42,3.65,49.75,49.75,0,0,1,1.38,5.27c1.4,6.46,12.28,5.17,11.69-1.58a104.08,104.08,0,0,0-5.14-25l-10.88,4.59a106,106,0,0,1,7.7,19.92c1.84,6.6,11.4,5,11.7-1.58a41.42,41.42,0,0,0-1.87-14.38c-2.27-7.29-13.44-4.28-11.48,3.17q2.13,8.05,4.67,16c2.33,7.27,13.82,4.16,11.48-3.17q-2.55-7.93-4.67-16l-11.48,3.17a31.49,31.49,0,0,1,1.44,11.21l11.69-1.59a122.4,122.4,0,0,0-8.9-22.76c-3-5.95-13.07-1.83-10.88,4.59a91.62,91.62,0,0,1,4.72,21.82L787.51,590c-1-4.71-2.52-12.64-7.17-15.27-5.05-2.85-12.52,1.12-17.35,2.84-4.57,1.63-6.2,8.27-1.42,10.88L785,601.25c6.72,3.66,14.31,9.75,22.34,7.55a6.09,6.09,0,0,0,4.15-7.32,76.19,76.19,0,0,0-6.09-17.85c-2.45-5.14-11.81-2.83-11.09,3a47.75,47.75,0,0,1,.11,11l11.09-3c-3.89-6.25-5.48-13.29-7.87-20.18-2.5-7.2-6.79-13.69-8.9-21s-13.42-4.27-11.48,3.17a29.56,29.56,0,0,1,.8,10.52l11.1-3c-3.92-8.4-4.55-17.7-7.5-26.39-1.25-3.68-3-7.63-6.73-9.34a7.52,7.52,0,0,0-10,3.31c-1.8,3.58-1.56,9-1.5,12.88a79.21,79.21,0,0,0,2,14.2c2,10.18,1.95,20.12.68,30.4l11.69-1.58c-1.24-4.94.08-11.38.28-16.46l.69-16.91c.31-7.67-11.6-7.65-11.91,0Z" transform="translate(-528.88 -147.13)"/><path class="cls-2" d="M652.44,175.07c7.66,0,7.68-11.91,0-11.91s-7.67,11.91,0,11.91Z" transform="translate(-528.88 -147.13)"/><path class="cls-2" d="M658.17,167.08l-2.66-2.18a6.63,6.63,0,0,0-4.21-1.74,6.09,6.09,0,0,0-4.21,1.74,6,6,0,0,0-1.74,4.21,5.77,5.77,0,0,0,1.74,4.21l2.66,2.18a4.5,4.5,0,0,0,1.91,1.23,4.45,4.45,0,0,0,2.3.52,6.05,6.05,0,0,0,4.21-1.75,6,6,0,0,0,1.74-4.21,5.85,5.85,0,0,0-1.74-4.21Z" transform="translate(-528.88 -147.13)"/><path class="cls-2" d="M659.15,170.3a81.79,81.79,0,0,0-10.95-8.11,6,6,0,0,0-6,10.28,60.3,60.3,0,0,1,8.54,6.25,6.11,6.11,0,0,0,8.42,0c2.16-2.16,2.43-6.29,0-8.42Z" transform="translate(-528.88 -147.13)"/></g><g id="Capa_1" data-name="Capa 1"><g class="cls-3"><path d="M788.58,544.39l-1.39-5.84c10.91-2.6,48-13.88,67.39-49.93.28-.52,27.64-52.44,1.46-86.46a65.09,65.09,0,0,0-41.07-24c-9.51-1.32-16.45.39-22,1.77-6.38,1.57-11.9,2.94-17.56-1.1-14.11-10.06-10.21-36.65-4.81-73.45,2.49-17,5.2-29.53,7.38-39.59,3.89-18,5.51-25.48.36-32.33-4-5.3-8.88-6-18.62-7.37A183.72,183.72,0,0,1,727.21,219c-20.53-6.51-34.69-14.73-44.06-20.16-4.7-2.73-10-5.8-11.55-5.61-.91,2.14,5.16,12.14,10,20.19,10.81,17.82,27.16,44.75,33.87,78.69,5.51,27.82,3.88,57.27-4.84,87.53L704.92,378c8.45-29.32,10-57.82,4.72-84.7-6.51-32.89-22.52-59.28-33.12-76.73-9-14.82-13.94-23-9-27.68,3.93-3.78,9.49-.55,18.69,4.79s23,13.32,42.87,19.63a178.19,178.19,0,0,0,31.51,6.9c10.29,1.46,17.09,2.42,22.57,9.71,6.8,9,4.77,18.45.71,37.2-2.16,10-4.84,22.37-7.31,39.19-4.9,33.39-8.76,59.76,2.36,67.69,3.28,2.34,6.42,1.7,12.64.16s13.63-3.37,24.28-1.88c17.13,2.38,34.37,12.44,45,26.25,28.52,37.07.29,90.69-.93,93C839.3,529.71,800.11,541.64,788.58,544.39Z" transform="translate(-528.88 -147.13)"/><path d="M808.15,611.23c-4.45,0-10.26-3.81-18-8.85-14.26-9.32-35.82-23.41-66-26.83-12.9-1.47-23.76-.57-32.49.15-12,1-20.67,1.7-24.75-5.2-4.27-7.24,1-15.38,8.43-26.64,6-9.2,13.52-20.65,18.82-35.68,7.16-20.27,8.72-42.71,4.65-66.68l5.92-1c4.24,25,2.59,48.43-4.91,69.67-5.55,15.72-13.26,27.51-19.46,37s-10.66,16.27-8.28,20.3c2.07,3.5,8,3.19,19.09,2.27,9-.74,20.17-1.66,33.65-.14,31.57,3.59,53.85,18.15,68.59,27.78,5.79,3.79,13.73,9,15.09,7.7,1.9-1.77-3.76-12.85-8.75-22.61-7.63-14.92-18.07-35.35-25.56-61.69a257.78,257.78,0,0,1-9.67-72.61l6,.05A251.38,251.38,0,0,0,780,519.12c7.32,25.77,17.61,45.9,25.12,60.59,8.19,16,12.71,24.87,7.51,29.73A6.31,6.31,0,0,1,808.15,611.23Z" transform="translate(-528.88 -147.13)"/><path d="M770.33,474.65l-3.14-5.11,27.15-16.65c-51.47,1.6-100.61-6.68-146.21-24.65l-3.79-1.49c-35.77-14.05-80.28-31.54-84.16-64.34-3.52-29.78,27.75-57.92,38-67.16,18.66-16.79,38.25-24.14,48.78-28.1A177.45,177.45,0,0,1,698,256.21l1.82-.12L711.29,275l-5.14,3.11-9.53-15.75a171.61,171.61,0,0,0-47.53,10.45c-10.16,3.81-29.06,10.91-46.87,26.93-9.71,8.74-39.24,35.32-36.08,62,3.46,29.23,46.12,46,80.39,59.46l3.8,1.49c47.84,18.85,99.68,26.85,154.06,23.79a3.31,3.31,0,0,1,1.91,6.14Z" transform="translate(-528.88 -147.13)"/><path d="M804.58,343c-8.7,0-20.31-5.15-35.15-15.56l3.45-4.91c17.89,12.55,30.81,17.06,37.35,13.05,2.33-1.43,3.32-3.62,4.81-6.94a47.91,47.91,0,0,1,8.88-14.05,50.11,50.11,0,0,1,15.5-11.35c1.68-.86,4-2,4.07-2.62.13-.85-.59-8.85-63.69-29l1.83-5.72c61.49,19.63,68.78,29,67.8,35.59-.54,3.64-3.67,5.23-7.29,7.08a44.33,44.33,0,0,0-13.79,10.05,42.13,42.13,0,0,0-7.83,12.47c-1.67,3.7-3.24,7.2-7.16,9.6A16.47,16.47,0,0,1,804.58,343Z" transform="translate(-528.88 -147.13)"/><path d="M730.47,382.56c-13.32,0-26.22-.2-37.84-.79-33.51-1.68-48.44-6-49.94-14.4a7.18,7.18,0,0,1-.09-1.16v-.16c-.27-15.53,15.13-26.85,26.37-35.11a154.84,154.84,0,0,1,39-20.74l.5-.18h6.58v6h-5.53a149,149,0,0,0-37,19.75c-10.18,7.49-24.13,17.75-23.92,30.18v.17c0,.11,0,.2,0,.27.42,1.81,5,7.41,44.32,9.39,25,1.25,56,.75,84.2.21v-.18h6.12c3.16,0,3.47,0,4.37.88l.88.88v1.25c0,2.12-1.19,2.74-3.15,2.95v0H785c-.69.05-1.47.07-2.32.08C765.88,382.21,747.83,382.56,730.47,382.56Zm-81.88-16.25h0Z" transform="translate(-528.88 -147.13)"/></g><g class="cls-4"><path d="M673.85,545.55l-4.24-1.95-1.31-.6a334.69,334.69,0,0,1-36.15-20c-22.35-14.52-32.19-26.28-30.08-36,1.06-4.87,4.58-6.79,8.65-9a46.39,46.39,0,0,0,13.57-10.31c8.06-8.87,13.64-27.36,13.69-27.55l1.15-3.82L676,460c8.92,5.75,18.26,7.78,26.51,9.57,1.25.27,2.46.53,3.62.8l-1.34,5.85-3.56-.79c-8.3-1.8-18.64-4.05-28.48-10.38l-30.2-19.43c-2.18,6.25-7.09,18.74-13.76,26.1a52.32,52.32,0,0,1-15.15,11.55c-3.92,2.13-5.22,3-5.66,5-3,13.9,41.9,39.65,62.87,49.25l1.31.61,4.27,2Z" transform="translate(-528.88 -147.13)"/><path d="M811.25,650.11,806,645.85a225.92,225.92,0,0,0-91.8-44.75,222.93,222.93,0,0,0-78.86-3.54l-5.1.68,8.85-35.42a124.85,124.85,0,0,1-37.57-22.29,126.75,126.75,0,0,1-34.43-48l-1-2.33,1.91-1.65a73.29,73.29,0,0,0,19.39-26.25,72.08,72.08,0,0,0,5.7-22.82l.28-3.29L641,437.5l-.19,7-41-1.11a79.36,79.36,0,0,1-5.91,21.73,80.49,80.49,0,0,1-19.34,27.07,119.66,119.66,0,0,0,31.56,43A117.88,117.88,0,0,0,644.4,557.3l3,1.05L639.51,590a229.56,229.56,0,0,1,76.23,4.26,233,233,0,0,1,89.42,42l2-29.26,7,.47Z" transform="translate(-528.88 -147.13)"/><path d="M595.65,442.64c-7.36-2.55-44.85-17.3-60.39-58-14.84-38.84.2-72.43,7.36-85.08,11.29-19.94,27-30.56,45.15-42.86a221.47,221.47,0,0,1,59.38-28.37c-.54-4.29-1.23-8.6-2.06-12.83a193.51,193.51,0,0,0-23.55-61.24l-4.22-7.15,7.81,2.79a504.33,504.33,0,0,0,111.7,26.16c8.63,1,17.4,1.78,26.07,2.32l2,.12,18.67,52.16-5.65,2-17.34-48.44c-8.13-.54-16.33-1.28-24.41-2.22a509.72,509.72,0,0,1-105.48-23.83A198.26,198.26,0,0,1,651,214.37c1,5.21,1.83,10.52,2.42,15.79l.28,2.5-2.41.71a216,216,0,0,0-60.13,28.31c-18.27,12.37-32.7,22.14-43.3,40.86-5.26,9.29-21.3,42.5-7,80,14.59,38.19,49.83,52.06,56.75,54.45Z" transform="translate(-528.88 -147.13)"/><path d="M808.26,611a242.26,242.26,0,0,0-50.85-25.71,245.12,245.12,0,0,0-96.09-14.35,32.81,32.81,0,0,0,11.46-26.75A157.29,157.29,0,0,1,602.65,489a130.59,130.59,0,0,0,35.87-46.65l-44.23-1.2A71.37,71.37,0,0,1,568,492.59,145.06,145.06,0,0,0,640.91,562l-8.37,33.49a331.69,331.69,0,0,1,173.32,49l2.4-33.49" transform="translate(-528.88 -147.13)"/><path d="M809,650.49l-4.91-3A328.24,328.24,0,0,0,632.53,599h-4.47l8.74-35a148.52,148.52,0,0,1-71.95-69.83l-1.23-2.51,2.16-1.75a68.54,68.54,0,0,0,18.15-22.75A67.73,67.73,0,0,0,590.79,441l.2-3.39,52.9,1.43-2.19,4.81a134.09,134.09,0,0,1-34.3,45.77,153.65,153.65,0,0,0,66.67,51.36l2.08.82.12,2.24a36.43,36.43,0,0,1-2.91,16.36,35.67,35.67,0,0,1-3.86,6.8,245.32,245.32,0,0,1,140.69,40.93l1.7,1.12ZM637,592a334.95,334.95,0,0,1,165.77,46.57l1.84-25.76a238.71,238.71,0,0,0-143.13-38.37l-10.26.51,7.81-6.67a29.27,29.27,0,0,0,10.28-21.71A160.7,160.7,0,0,1,599.8,491l-1.88-2.66,2.51-2.07A126.88,126.88,0,0,0,633,445.71l-35.5-1a74.44,74.44,0,0,1-7.3,25.47,75.77,75.77,0,0,1-17.85,23.27,141.55,141.55,0,0,0,69.93,65.26l2.73,1.18Z" transform="translate(-528.88 -147.13)"/><g class="cls-5"><g class="cls-5"><path d="M762.64,183.79c5.26,4.56,5.13,11,9,25.14a174.2,174.2,0,0,0,9,25.15l-99.71-35.77,21.52,70c-7.94.36-78.81,4.7-107.57,57.4a94,94,0,0,0-10.76,34.16c.08,10.92,2,30,15,46,.69.86,1.47,1.76,2.4,2.73,14.67,15.17,32.3,20.18,46,24.18,13.37,3.91,31.57,9.72,55.07,18.59L596.56,442.2c-5.39-1.87-43-15.61-58.57-56.22-12.5-32.73-3.36-63.93,7.17-82.53C556.1,284.12,571,274,589.39,261.59a218.78,218.78,0,0,1,61-28.7c-.56-5-1.34-10.19-2.39-15.55a196.53,196.53,0,0,0-23.9-62.2,202,202,0,0,0,41.18,16.3A244.68,244.68,0,0,0,697,177.59c17.14,2.45,26.37,3.77,39.42,3.87C752.9,181.57,757.65,179.45,762.64,183.79Z" transform="translate(-528.88 -147.13)"/></g></g><path d="M686.68,456.75l-7.87-1.6C673,454,667.18,452.57,661.45,451c-8.94-2.51-15.36-4.86-19.19-6.27l-2.38-.86c-11.31-3.91-25.61-3.49-42.51,1.25l-.9.26-.89-.31c-7.36-2.55-44.85-17.31-60.39-58-14.84-38.84.2-72.44,7.36-85.07,11.29-20,27-30.58,45.16-42.87a221.58,221.58,0,0,1,59.37-28.37c-.55-4.32-1.24-8.62-2.06-12.83a193.4,193.4,0,0,0-23.55-61.24l-4.22-7.15,7.81,2.8a504.59,504.59,0,0,0,111.7,26.16c8.63,1,17.4,1.77,26.07,2.31l2,.13.67,1.86q6.49,18.12,13,36.26l7.16,20-100-35.89,20.9,67.94-3.88.17c-7.82.36-77.28,4.93-105.07,55.84A91.8,91.8,0,0,0,587.13,360c.17,17.41,5.13,32.6,14.36,43.92,1,1.21,2,2.24,2.24,2.53,7.25,7.61,14.54,10.08,27.76,14.56,1.85.63,3.8,1.29,5.87,2,13.68,4.73,21.21,7.34,27,11.08a71.22,71.22,0,0,1,17.47,16.27Zm-63.92-21.57a58.17,58.17,0,0,1,19.08,3l2.48.9c3.75,1.37,10,3.68,18.75,6.12q4,1.13,8,2.1a62.76,62.76,0,0,0-10-8.14c-4.92-3.21-11.42-5.52-25.64-10.44l-5.83-2c-13.2-4.48-21.92-7.43-30.17-16.09-.42-.44-1.46-1.55-2.56-2.9-10.13-12.43-15.57-29-15.71-47.86v-.19l0-.2a97.92,97.92,0,0,1,11.1-35.23c12.43-22.78,33.71-39.51,63.25-49.73a179,179,0,0,1,43-9l-22.16-72.06,99.37,35.65-2.88-8.05q-6.15-17.2-12.32-34.41c-8.13-.54-16.33-1.29-24.4-2.21A509.19,509.19,0,0,1,630.59,160.6a198.29,198.29,0,0,1,20.32,56.16c1,5.16,1.83,10.48,2.42,15.79l.29,2.5-2.42.71a216,216,0,0,0-60.13,28.32c-18.27,12.36-32.7,22.12-43.3,40.85-5.26,9.29-21.3,42.49-7,80,14.06,36.79,47.29,51,55.88,54.14A99.54,99.54,0,0,1,622.76,435.18Z" transform="translate(-528.88 -147.13)"/><path d="M711.67,318.89c5.15,3.15,3.79,13.71,1.6,31.62a211.69,211.69,0,0,1-4.7,25.4c-14.83,4.57-20.31,2.64-22.53-.11-3.26-4,.85-9.1,2.79-26.61,1.5-13.62-.32-16.92,3.25-22.12,4.65-6.77,14.62-11.22,19.59-8.18" transform="translate(-528.88 -147.13)"/><path d="M694,381.68c-4.78,0-8.15-1.33-10.3-4-2.83-3.51-2-7.3-.65-13a130,130,0,0,0,2.79-15.8c.53-4.79.63-8.26.72-11,.16-5.24.26-8.4,3-12.45,5.15-7.49,16.83-13.19,23.62-9s5.45,14.71,3.09,33.93l-.08.61a215.62,215.62,0,0,1-4.76,25.77l-.41,1.64-1.62.5C703.2,380.71,698.09,381.68,694,381.68Zm13.81-60.76c-3.86,0-10,3.09-13.26,7.85-1.79,2.6-1.85,4.4-2,9.23-.09,2.89-.2,6.49-.76,11.52a134.07,134.07,0,0,1-2.9,16.48c-1.22,5.33-1.43,6.8-.53,7.92s4.55,3.41,17.68-.39a208,208,0,0,0,4.23-23.39l.07-.61c1.78-14.51,3.19-26-.26-28.08h0A4.37,4.37,0,0,0,707.82,320.92Z" transform="translate(-528.88 -147.13)"/><path d="M662.21,447.38c0,.1,0,.21,0,.21,0,.17,0,.31,0,.48.67,6.2,6.18,10.35,9.71,12.94,2.4,1.76,1.11.46,9.79,5.51,6.32,3.68,10.29,6.29,15.1,5.23a4.42,4.42,0,0,0,.74-.19c7-2.46,9.59-20.54,2.48-27.42-1.18-1.14-2.21-1.57-6.66-3.07-16.16-5.44-24.29-8.11-27.15-5.64C662.53,438.65,662.2,447.19,662.21,447.38Z" transform="translate(-528.88 -147.13)"/><polygon points="240.36 305.96 263.31 305.96 240.36 324.83 240.36 305.96"/><path d="M766.24,478.31V450.09h34.32Zm6-22.22v9.52l11.58-9.52Z" transform="translate(-528.88 -147.13)"/></g><path d="M672.92,442.09" transform="translate(-528.88 -147.13)"/><path d="M701.61,183.23" transform="translate(-528.88 -147.13)"/><path class="cls-1" d="M848.43,635" transform="translate(-528.88 -147.13)"/><path d="M674.07,181.56c7.66,0,7.67-11.91,0-11.91s-7.68,11.91,0,11.91Z" transform="translate(-528.88 -147.13)"/><path d="M666.94,179c7.66,0,7.68-11.9,0-11.9s-7.67,11.9,0,11.9Z" transform="translate(-528.88 -147.13)"/><path d="M659.82,178.5c7.66,0,7.67-11.9,0-11.9s-7.67,11.9,0,11.9Z" transform="translate(-528.88 -147.13)"/><path d="M653.9,176.81c4.3,3.64,9,5,14.6,5.39,4.26.32,10.68-.82,14.28,2.08,5.91,4.77,14.38-3.6,8.42-8.41-4.42-3.57-9.1-4.88-14.72-5.27-4.29-.3-10.61.8-14.16-2.21-5.82-4.92-14.28,3.46-8.42,8.42Z" transform="translate(-528.88 -147.13)"/><path d="M712.3,181.94c-3.37,1-8.43,2.8-12,2-1.31-.29-2.5-1.43-3.81-1.83a9.26,9.26,0,0,0-5.14,0c-7.45,1.78-4.29,13.26,3.17,11.48l1-.24h-3.16c1.41.32,2.62,1.39,4,1.85a15.94,15.94,0,0,0,6,.54,61.64,61.64,0,0,0,13.14-2.37c7.35-2.13,4.22-13.63-3.16-11.48Z" transform="translate(-528.88 -147.13)"/><path d="M667.45,445.13c7.66,0,7.68-11.9,0-11.9s-7.67,11.9,0,11.9Z" transform="translate(-528.88 -147.13)"/><path d="M666.43,456.33c7.67,0,7.68-11.91,0-11.91s-7.67,11.91,0,11.91Z" transform="translate(-528.88 -147.13)"/><path d="M698.49,469.56c7.66,0,7.67-11.91,0-11.91s-7.67,11.91,0,11.91Z" transform="translate(-528.88 -147.13)"/><path d="M632.29,437.82a50.07,50.07,0,0,1,10.6,4.66l6-10.28-10.89-5c-3.22-1.49-8-2.81-10.5-5.29-1.92-1.87-2.73-4.79-4.68-6.76a12.57,12.57,0,0,0-8.3-3.65c-7.62-.75-7.57,11.17,0,11.91.58.06,2.51,4.39,3.07,5.15a17.29,17.29,0,0,0,6.42,5.23c6.18,3.1,12.59,5.81,18.87,8.71,6.85,3.16,12.64-6.17,6-10.28a64.34,64.34,0,0,0-13.45-5.86c-7.27-2.47-10.39,9-3.16,11.48Z" transform="translate(-528.88 -147.13)"/><path d="M673.05,551.48c7.66,0,7.67-11.91,0-11.91s-7.67,11.91,0,11.91Z" transform="translate(-528.88 -147.13)"/><path d="M653.71,175.58c7.66,0,7.68-11.91,0-11.91s-7.67,11.91,0,11.91Z" transform="translate(-528.88 -147.13)"/><path d="M619.49,151.52a1.49,1.49,0,0,0,0-3,1.49,1.49,0,0,0,0,3Z" transform="translate(-528.88 -147.13)"/><path d="M619,151.4a1.49,1.49,0,0,0,0-3,1.49,1.49,0,0,0,0,3Z" transform="translate(-528.88 -147.13)"/><path d="M618.35,150.51a1.49,1.49,0,0,0,0-3,1.49,1.49,0,0,0,0,3Z" transform="translate(-528.88 -147.13)"/><path d="M618.1,150.25a1.49,1.49,0,0,0,0-3,1.49,1.49,0,0,0,0,3Z" transform="translate(-528.88 -147.13)"/></g></svg>